<?xml version="1.0" standalone="no"?><!DOCTYPE svg PUBLIC "-//W3C//DTD SVG 1.1//EN" "http://www.w3.org/Graphics/SVG/1.1/DTD/svg11.dtd"><svg t="1731414029415" class="icon" viewBox="0 0 1024 1024" version="1.1" xmlns="http://www.w3.org/2000/svg" p-id="4461" xmlns:xlink="http://www.w3.org/1999/xlink" width="75" height="75"><path d="M279.493575 705.220676c-11.142781-11.100826-39.926338-12.524245-51.079352-1.423419l0 211.639165c11.151991 10.769274 39.936571 9.378601 51.079352-1.381463l91.054809-72.580039c11.023054-11.098779 11.023054-29.100782 0-40.199561L279.493575 705.220676zM337.691045 823.425845 290.264896 861.914438c-5.27412 5.094018-18.899442 5.750981-24.176632 0.653893L266.088264 754.107083c5.278213-5.254677 18.903535 6.670933 24.176632 11.92561l47.425126 49.616024C342.909907 820.904419 342.909907 818.171168 337.691045 823.425845zM927.032528 108.414175c-3.447519 0-6.568602 1.016143-9.445116 2.480494L99.517551 352.479867c-12.753465 7.407714-20.36277 20.207227-21.938662 33.875528l-0.843204 0.229221 0.691755 0.663102c-0.856507 9.003048 0.873903 18.340717 5.708002 26.767644l206.177779 165.144224 494.253824-325.94656L365.271194 612.024088c-17.072841 17.115819-17.072841 44.86379 0 61.97347l191.291744 216.882586c17.072841 17.110703 44.757367 17.110703 61.83123 0l323.119165-745.565547c4.125971-3.903913 6.77838-9.356089 6.77838-15.503089C948.292738 117.996414 938.771897 108.414175 927.032528 108.414175zM888.907209 189.5818 601.733721 834.779428c-26.992771 36.368302-18.968004 24.189935-44.185338 1.183965l-135.505183-154.202011c-28.791743-28.789697-24.814152-37.601386-5.554506-53.06559l430.278767-422.655136L281.4573 524.059664l-142.949736-106.945731c-32.344662-29.305443-9.870812-29.128411 11.633968-41.620933l717.77255-216.113059C906.423141 148.773372 898.68797 172.424025 888.907209 189.5818z" fill="#272636" p-id="4462"></path></svg>