<svg width="32.000000" height="18.000000" viewBox="0 0 80 40" fill="none" xmlns="http://www.w3.org/2000/svg" xmlns:xlink="http://www.w3.org/1999/xlink">
    <rect id="矩形 1" x="0.500000" y="0.500000" rx="6.000000" width="79.000000"
          height="39.000000" stroke="#E6A23C" stroke-opacity="1.000000" stroke-width="1.000000"/>
    <path id="ALTER"
          d="M13.93 28L12.05 28L17.03 13.32L19.09 13.32L24.08 28L22.12 28L20.72 23.51L15.35 23.51L13.93 28ZM34.39 28L26.14 28L26.14 13.32L28 13.32L28 26.41L34.39 26.41L34.39 28ZM39.23 28L37.37 28L37.37 14.89L32.94 14.89L32.94 13.32L43.68 13.32L43.68 14.89L39.23 14.89L39.23 28ZM54.97 28L46.3 28L46.3 13.32L54.75 13.32L54.75 14.89L48.16 14.89L48.16 19.49L53.71 19.49L53.71 21.08L48.16 21.08L48.16 26.41L54.97 26.41L54.97 28ZM59.92 28L58.06 28L58.06 13.32L62.66 13.32C65.64 13.32 67.77 14.4 67.77 17.45C67.77 19.73 66.46 21.1 64.45 21.57L68.21 28L66.11 28L62.55 21.77L59.92 21.77L59.92 28ZM18 14.84C17.54 16.55 17.05 18.14 16.54 19.8L15.81 22.03L20.26 22.03L19.55 19.8C19.02 18.14 18.55 16.54 18.07 14.84L18 14.84ZM59.92 14.84L59.92 20.28L62.37 20.28C64.67 20.28 65.93 19.36 65.93 17.45C65.93 15.51 64.67 14.84 62.37 14.84L59.92 14.84Z"
          fill="#E6A23C" fill-opacity="1.000000" fill-rule="evenodd"/>
</svg>
