<svg width="32.000000" height="18.000000" viewBox="0 0 80 40" fill="none" xmlns="http://www.w3.org/2000/svg" xmlns:xlink="http://www.w3.org/1999/xlink">
    <rect id="矩形 1" x="0.500000" y="0.500000" rx="6.000000"
          width="79.000000" height="39.000000" stroke="#409EFF" stroke-opacity="1.000000" stroke-width="1.000000"/>
    <path id="CREATE"
          d="M16.04 26.15C14.87 27.5 13.43 28.25 11.53 28.25C7.9 28.25 5.16 25.44 5.16 20.68C5.16 15.93 7.94 13.05 11.66 13.05C13.43 13.05 14.83 13.94 15.67 14.87L14.67 16.08C13.92 15.26 12.94 14.67 11.68 14.67C8.9 14.67 7.06 16.95 7.06 20.62C7.06 24.31 8.81 26.63 11.62 26.63C13.01 26.63 14.07 26.01 15.02 25L16.04 26.15ZM20.62 28L18.76 28L18.76 13.32L23.36 13.32C26.34 13.32 28.47 14.4 28.47 17.45C28.47 19.73 27.16 21.1 25.15 21.57L28.91 28L26.81 28L23.25 21.77L20.62 21.77L20.62 28ZM40.15 28L31.48 28L31.48 13.32L39.93 13.32L39.93 14.89L33.34 14.89L33.34 19.49L38.89 19.49L38.89 21.08L33.34 21.08L33.34 26.41L40.15 26.41L40.15 28ZM43.17 28L41.29 28L46.27 13.32L48.33 13.32L53.32 28L51.36 28L49.96 23.51L44.59 23.51L43.17 28ZM59.07 28L57.21 28L57.21 14.89L52.78 14.89L52.78 13.32L63.52 13.32L63.52 14.89L59.07 14.89L59.07 28ZM74.81 28L66.14 28L66.14 13.32L74.59 13.32L74.59 14.89L68 14.89L68 19.49L73.55 19.49L73.55 21.08L68 21.08L68 26.41L74.81 26.41L74.81 28ZM20.62 14.84L20.62 20.28L23.07 20.28C25.37 20.28 26.63 19.36 26.63 17.45C26.63 15.51 25.37 14.84 23.07 14.84L20.62 14.84ZM47.24 14.84C46.78 16.55 46.29 18.14 45.78 19.8L45.05 22.03L49.5 22.03L48.79 19.8C48.26 18.14 47.79 16.54 47.31 14.84L47.24 14.84Z"
          fill="#409EFF" fill-opacity="1.000000" fill-rule="evenodd"/>
</svg>
