<svg width="32.000000" height="18.000000" viewBox="0 0 80 40" fill="none" xmlns="http://www.w3.org/2000/svg" xmlns:xlink="http://www.w3.org/1999/xlink">
    <rect id="矩形 1" x="0.500000" y="0.500000"
          rx="6.000000" width="79.000000" height="39.000000" stroke="#F56C6C" stroke-opacity="1.000000" stroke-width="1.000000"/>
    <path id="DELETE"
          d="M9.76 28L6 28L6 13.32L9.67 13.32C14.18 13.32 16.59 15.95 16.59 20.62C16.59 25.26 14.18 28 9.76 28ZM28.41 28L19.74 28L19.74 13.32L28.19 13.32L28.19 14.89L21.6 14.89L21.6 19.49L27.15 19.49L27.15 21.08L21.6 21.08L21.6 26.41L28.41 26.41L28.41 28ZM39.75 28L31.5 28L31.5 13.32L33.36 13.32L33.36 26.41L39.75 26.41L39.75 28ZM51.03 28L42.36 28L42.36 13.32L50.81 13.32L50.81 14.89L44.22 14.89L44.22 19.49L49.77 19.49L49.77 21.08L44.22 21.08L44.22 26.41L51.03 26.41L51.03 28ZM59.03 28L57.17 28L57.17 14.89L52.74 14.89L52.74 13.32L63.48 13.32L63.48 14.89L59.03 14.89L59.03 28ZM74.77 28L66.1 28L66.1 13.32L74.55 13.32L74.55 14.89L67.96 14.89L67.96 19.49L73.51 19.49L73.51 21.08L67.96 21.08L67.96 26.41L74.77 26.41L74.77 28ZM7.86 14.84L7.86 26.48L9.51 26.48C12.97 26.48 14.67 24.31 14.67 20.62C14.67 16.9 12.97 14.84 9.51 14.84L7.86 14.84Z"
          fill="#F56C6C" fill-opacity="1.000000" fill-rule="evenodd"/>
</svg>
