<svg width="32.000000" height="18.000000" viewBox="0 0 80 40" fill="none" xmlns="http://www.w3.org/2000/svg" xmlns:xlink="http://www.w3.org/1999/xlink">
    <rect id="矩形 1" x="0.500000" y="0.500000" rx="6.000000" width="79.000000"
          height="39.000000" stroke="#F56C6C" stroke-opacity="1.000000" stroke-width="1.000000"/>
    <path id="DROP"
          d="M53.14 20.62C53.14 25.31 50.55 28.25 46.88 28.25C43.2 28.25 40.62 25.31 40.62 20.62C40.62 15.91 43.2 13.05 46.88 13.05C50.55 13.05 53.14 15.91 53.14 20.62ZM18.76 28L15 28L15 13.32L18.67 13.32C23.18 13.32 25.59 15.95 25.59 20.62C25.59 25.26 23.18 28 18.76 28ZM30.6 28L28.74 28L28.74 13.32L33.34 13.32C36.32 13.32 38.45 14.4 38.45 17.45C38.45 19.73 37.14 21.1 35.13 21.57L38.89 28L36.79 28L33.23 21.77L30.6 21.77L30.6 28ZM58.16 28L56.3 28L56.3 13.32L60.5 13.32C63.78 13.32 65.97 14.44 65.97 17.63C65.97 20.73 63.8 22.17 60.57 22.17L58.16 22.17L58.16 28ZM42.52 20.62C42.52 24.27 44.24 26.63 46.88 26.63C49.49 26.63 51.24 24.27 51.24 20.62C51.24 16.94 49.49 14.67 46.88 14.67C44.24 14.67 42.52 16.94 42.52 20.62ZM16.86 14.84L16.86 26.48L18.51 26.48C21.97 26.48 23.67 24.31 23.67 20.62C23.67 16.9 21.97 14.84 18.51 14.84L16.86 14.84ZM30.6 14.84L30.6 20.28L33.05 20.28C35.35 20.28 36.61 19.36 36.61 17.45C36.61 15.51 35.35 14.84 33.05 14.84L30.6 14.84ZM58.16 14.84L58.16 20.68L60.34 20.68C62.91 20.68 64.13 19.73 64.13 17.63C64.13 15.51 62.84 14.84 60.26 14.84L58.16 14.84Z"
          fill="#F56C6C" fill-opacity="1.000000" fill-rule="evenodd"/>
</svg>
