<svg width="32.000000" height="18.000000" viewBox="0 0 80 40" fill="none" xmlns="http://www.w3.org/2000/svg" xmlns:xlink="http://www.w3.org/1999/xlink">
    <rect id="矩形 1" x="0.500000" y="0.500000" rx="6.000000"
          width="79.000000" height="39.000000" stroke="#409EFF" stroke-opacity="1.000000" stroke-width="1.000000"/>
    <path id="INSERT"
          d="M37.35 24.09C37.35 26.41 35.44 28.25 32.37 28.25C30.29 28.25 28.52 27.41 27.24 26.08L28.36 24.82C29.4 25.91 30.88 26.63 32.39 26.63C34.31 26.63 35.47 25.68 35.47 24.24C35.47 22.74 34.42 22.25 33.03 21.63L30.91 20.71C29.56 20.13 27.94 19.09 27.94 16.95C27.94 14.69 29.89 13.05 32.55 13.05C34.29 13.05 35.84 13.8 36.88 14.87L35.89 16.06C35 15.22 33.92 14.67 32.55 14.67C30.89 14.67 29.82 15.51 29.82 16.83C29.82 18.25 31.09 18.8 32.24 19.27L34.34 20.17C36.04 20.91 37.35 21.92 37.35 24.09ZM9.86 28L8 28L8 13.32L9.86 13.32L9.86 28ZM15.61 28L13.86 28L13.86 13.32L15.78 13.32L21.11 22.58L22.68 25.59L22.77 25.59C22.68 24.11 22.53 22.48 22.53 20.95L22.53 13.32L24.3 13.32L24.3 28L22.4 28L17.06 18.74L15.47 15.71L15.4 15.71C15.47 17.19 15.61 18.76 15.61 20.29L15.61 28ZM48.91 28L40.24 28L40.24 13.32L48.69 13.32L48.69 14.89L42.1 14.89L42.1 19.49L47.65 19.49L47.65 21.08L42.1 21.08L42.1 26.41L48.91 26.41L48.91 28ZM53.86 28L52 28L52 13.32L56.6 13.32C59.58 13.32 61.71 14.4 61.71 17.45C61.71 19.73 60.4 21.1 58.39 21.57L62.15 28L60.05 28L56.49 21.77L53.86 21.77L53.86 28ZM69.33 28L67.47 28L67.47 14.89L63.04 14.89L63.04 13.32L73.78 13.32L73.78 14.89L69.33 14.89L69.33 28ZM53.86 14.84L53.86 20.28L56.31 20.28C58.61 20.28 59.87 19.36 59.87 17.45C59.87 15.51 58.61 14.84 56.31 14.84L53.86 14.84Z"
          fill="#409EFF" fill-opacity="1.000000" fill-rule="evenodd"/>
</svg>
