<svg width="32.000000" height="18.000000" viewBox="0 0 80 40" fill="none" xmlns="http://www.w3.org/2000/svg" xmlns:xlink="http://www.w3.org/1999/xlink">
    <rect id="矩形 1" x="0.500000" y="0.500000" rx="6.000000"
          width="79.000000" height="39.000000" stroke="#E6A23C" stroke-opacity="1.000000" stroke-width="1.000000"/>
    <path id="UPDATE"
          d="M14.48 21.94C14.48 26.66 12.2 28.25 9.2 28.25C6.21 28.25 3.93 26.66 3.93 21.94L3.93 13.32L5.79 13.32L5.79 21.99C5.79 25.53 7.29 26.63 9.2 26.63C11.16 26.63 12.69 25.53 12.69 21.99L12.69 13.32L14.48 13.32L14.48 21.94ZM20.28 28L18.42 28L18.42 13.32L22.62 13.32C25.9 13.32 28.09 14.44 28.09 17.63C28.09 20.73 25.92 22.17 22.69 22.17L20.28 22.17L20.28 28ZM34.82 28L31.06 28L31.06 13.32L34.73 13.32C39.24 13.32 41.65 15.95 41.65 20.62C41.65 25.26 39.24 28 34.82 28ZM44.51 28L42.63 28L47.61 13.32L49.67 13.32L54.66 28L52.7 28L51.3 23.51L45.93 23.51L44.51 28ZM60.41 28L58.55 28L58.55 14.89L54.12 14.89L54.12 13.32L64.86 13.32L64.86 14.89L60.41 14.89L60.41 28ZM76.15 28L67.48 28L67.48 13.32L75.93 13.32L75.93 14.89L69.34 14.89L69.34 19.49L74.89 19.49L74.89 21.08L69.34 21.08L69.34 26.41L76.15 26.41L76.15 28ZM20.28 14.84L20.28 20.68L22.46 20.68C25.03 20.68 26.25 19.73 26.25 17.63C26.25 15.51 24.96 14.84 22.38 14.84L20.28 14.84ZM32.92 14.84L32.92 26.48L34.57 26.48C38.03 26.48 39.73 24.31 39.73 20.62C39.73 16.9 38.03 14.84 34.57 14.84L32.92 14.84ZM48.58 14.84C48.12 16.55 47.63 18.14 47.12 19.8L46.39 22.03L50.84 22.03L50.13 19.8C49.6 18.14 49.13 16.54 48.65 14.84L48.58 14.84Z"
          fill="#E6A23C" fill-opacity="1.000000" fill-rule="evenodd"/>
</svg>
